<svg xmlns="http://www.w3.org/2000/svg" width="1200" height="630" viewBox="0 0 1200 630" role="img" aria-labelledby="title desc">
  <title id="title">MOV2MP4 social card</title>
  <desc id="desc">Convert MOV to MP4 with no upload</desc>
  <defs>
    <linearGradient id="bg" x1="0" y1="0" x2="1" y2="1">
      <stop offset="0%" stop-color="#153b2e" />
      <stop offset="45%" stop-color="#1f6b4f" />
      <stop offset="100%" stop-color="#2b8a68" />
    </linearGradient>
    <radialGradient id="orbA" cx="0" cy="0" r="1" gradientTransform="translate(1130 40) rotate(120) scale(340 300)">
      <stop offset="0%" stop-color="#f3b068" stop-opacity="0.86" />
      <stop offset="100%" stop-color="#f3b068" stop-opacity="0" />
    </radialGradient>
    <radialGradient id="orbB" cx="0" cy="0" r="1" gradientTransform="translate(120 610) rotate(-25) scale(370 300)">
      <stop offset="0%" stop-color="#f7d3a2" stop-opacity="0.9" />
      <stop offset="100%" stop-color="#f7d3a2" stop-opacity="0" />
    </radialGradient>
  </defs>
  <rect width="1200" height="630" fill="url(#bg)" />
  <rect width="1200" height="630" fill="url(#orbA)" />
  <rect width="1200" height="630" fill="url(#orbB)" />

  <g transform="translate(92 120)">
    <rect x="0" y="0" width="480" height="390" rx="42" fill="#f4f8f3" />
    <rect x="34" y="42" width="412" height="80" rx="24" fill="#e5efe8" />
    <rect x="34" y="148" width="290" height="56" rx="20" fill="#1f6b4f" />
    <rect x="34" y="220" width="180" height="42" rx="16" fill="#153b2e" />
    <rect x="34" y="282" width="412" height="18" rx="9" fill="#d0ddd4" />
    <rect x="34" y="314" width="360" height="18" rx="9" fill="#d0ddd4" />
  </g>

  <g transform="translate(630 145)">
    <text x="0" y="0" fill="#d9f0e5" font-family="Space Grotesk, Segoe UI, sans-serif" font-size="34" font-weight="700" letter-spacing="0.12em">PAUL ZUIDERDUIN TOOLS</text>
    <text x="0" y="120" fill="#ffffff" font-family="Space Grotesk, Segoe UI, sans-serif" font-size="102" font-weight="700" letter-spacing="-0.04em">MOV2MP4</text>
    <text x="0" y="190" fill="#d4e9dd" font-family="Space Grotesk, Segoe UI, sans-serif" font-size="40" font-weight="500">Simple. Local. Reliable.</text>
    <text x="0" y="300" fill="#f3b068" font-family="IBM Plex Mono, Menlo, monospace" font-size="36" font-weight="500">mov2mp4.paulzuiderduin.com</text>
  </g>
</svg>
